{"title":"Power S03E01 Call Me James 1080p WEBRip HEVC DD5.1 x265 [1080P][","uid":15385064,"size":986695917,"categoryP":"video","categoryS":"hd___tv_shows","magnet":"?xt=urn:btih:320310e8f31e9494c535087cfdd200b8ab8a451c&amp;dn=Power+S03E01+Call+Me+James+1080p+WEBRip+HEVC+DD5.1+x265+%5B1080P%5D%5B&amp;tr=udp%3A%2F%2Ftracker.leechers-paradise.org%3A6969&amp;tr=udp%3A%2F%2Fzer0day.ch%3A1337&amp;tr=udp%3A%2F%2Fopen.demonii.com%3A1337&amp;tr=udp%3A%2F%2Ftracker.coppersurfer.tk%3A6969&amp;tr=udp%3A%2F%2Fexodus.desync.com%3A6969","seeders":5,"leechers":3,"uploader":"nayhtut","files":1,"time":1469285300,"description":"[Screenshots]\r\n \nhttps://s31.postimg.org/70ze56wbf/Power_S03_E01_Call_Me_James_1080p_WEBRip_HEVC_DD5.jpg \nhttps://s31.postimg.org/o2s87ab6j/Power_S03_E01_Call_Me_James_1080p_WEBRip_HEVC_DD5.jpg\r\n   \r\n\r\nSource:  Power S03E01 Call Me James 1080p NF WEBRip DD5.1 x264-NTb.mkv  (3.83 GB)\r\n \r\n\r\n__--__--__--__--__--__--__--__--__--__--__--__--__--\r\n\r\n\r\nComplete name                            : Power.S03E01.Call.Me.James.1080p.WEBRip.HEVC.DD5.1.x265.mkv\r\nFormat                                   : Matroska\r\nFormat version                           : Version 4 / Version 2\r\nFile size                                : 941 MiB\r\nDuration                                 : 58mn 13s\r\nOverall bit rate                         : 2 260 Kbps\r\nWriting application                      : Lavf57.25.100\r\nWriting library                          : Lavf57.25.100\r\n\r\nVideo\r\n\r\nID                                       : 1\r\nFormat                                   : V_MPEGH/ISO/HEVC\r\nCodec ID                                 : V_MPEGH/ISO/HEVC\r\nDuration                                 : 58mn 13s\r\nBit rate                                 : 1 831 Kbps\r\nWidth                                    : 1 920 pixels\r\nHeight                                   : 1 080 pixels\r\nDisplay aspect ratio                     : 16:9\r\nFrame rate                               : 25.000 fps\r\nBits/(Pixel*Frame)                       : 0.035\r\nStream size                              : 762 MiB (81%)\r\nWriting library                          : Lavc57.48.101 libx265\r\nLanguage                                 : English\r\nDefault                                  : Yes\r\nForced                                   : No\r\nDURATION                                 : 00:58:10.771000000\r\n\r\nAudio\r\n\r\nID                                       : 2\r\nFormat                                   : AC-3\r\nFormat/Info                              : Audio Coding 3\r\nMode extension                           : CM (complete main)\r\nFormat settings, Endianness              : Big\r\nCodec ID                                 : A_AC3\r\nDuration                                 : 58mn 13s\r\nBit rate mode                            : Constant\r\nBit rate                                 : 384 Kbps\r\nChannel(s)                               : 6 channels\r\nChannel positions                        : Front: L C R, Side: L R, LFE\r\nSampling rate                            : 48.0 KHz\r\nBit depth                                : 16 bits\r\nCompression mode                         : Lossy\r\nStream size                              : 160 MiB (17%)\r\nWriting library                          : Lavc57.24.102 ac3\r\nLanguage                                 : English\r\nDefault                                  : Yes\r\nForced                                   : No\r\nDURATION                                 : 00:58:13.471000000\r\n\r\nText\r\n\r\nID                                       : 3\r\nFormat                                   : ASS\r\nCodec ID                                 : S_TEXT/ASS\r\nCodec ID/Info                            : Advanced Sub Station Alpha\r\nCompression mode                         : Lossless\r\nWriting library                          : Lavc57.48.101 ssa\r\nLanguage                                 : English\r\nDefault                                  : Yes\r\nForced                                   : No\r\nDURATION                                 : 00:58:03.284000000\r\n\r\n\r\n__--__--__--__--__--__--__--__--__--__--__--__--__--\r\n\r\n\r\nIMDb: http://www.imdb.com/title/tt3281796\r\n\r\n\r\n__--__--__--__--__--__--__--__--__--__--__--__--__--\r\n\r\n\r\nAfter adding torrent with maget link,\r\n\r\nplease add this  following trackers list to the torrent for better seeds.\r\n\r\nudp://tracker.coppersurfer.tk:6969/announce\r\n\r\nudp://tracker.opentrackr.org:1337/announce\r\n \nhttp://tracker.baravik.org:6970/announce\r\n \nhttp://tracker2.wasabii.com.tw:6969/announce\r\n\r\nudp://9.rarbg.me:2710/announce\r\n\r\n\r\n__--__--__--__--__--__--__--__--__--__--__--__--__--\r\n\r\n\r\nEnjoy!","torrent":{"xt":"urn:btih:320310e8f31e9494c535087cfdd200b8ab8a451c","amp;dn":"Power+S03E01+Call+Me+James+1080p+WEBRip+HEVC+DD5.1+x265+%5B1080P%5D%5B","amp;tr":["udp%3A%2F%2Ftracker.leechers-paradise.org%3A6969","udp%3A%2F%2Fzer0day.ch%3A1337","udp%3A%2F%2Fopen.demonii.com%3A1337","udp%3A%2F%2Ftracker.coppersurfer.tk%3A6969","udp%3A%2F%2Fexodus.desync.com%3A6969"],"infoHash":"320310e8f31e9494c535087cfdd200b8ab8a451c","infoHashBuffer":{"type":"Buffer","data":[50,3,16,232,243,30,148,148,197,53,8,124,253,210,0,184,171,138,69,28]},"announce":[],"urlList":[]}}